# xmcd
# 
# Track frame offsets:
#     150
#     18131
#     31007
#     64056
#     82690
#     100094
#     131092
#     149548
#     165948
#     186158
# 
# Disc length: 2961
# 
# Revision: 2
# Processed by: cddbd v1.5.2PL0 Copyright (c) Steve Scherf et al.
# Submitted via: BonkEnc v1.0.8
# 
DISCID=710b8f0a
DTITLE=nana  vasconcelos - chegada
DYEAR=2005
DGENRE=Brazil
TTITLE0=Alvorada
TTITLE1=Cascudo
TTITLE2=O canto do cisne negro
TTITLE3=Chegada
TTITLE4=Dida
TTITLE5=Sou do bem
TTITLE6=Pra lá da casa de Naná
TTITLE7=Tundekagô
TTITLE8=Voô 2364
TTITLE9=Zumbi
EXTD=gravadora azul music
EXTT0=
EXTT1=
EXTT2=
EXTT3=
EXTT4=
EXTT5=
EXTT6=
EXTT7=
EXTT8=
EXTT9=
PLAYORDER=
